<?xml version="1.0" encoding="utf-8"?>
<!-- Generator: Adobe Illustrator 26.0.0, SVG Export Plug-In . SVG Version: 6.00 Build 0)  -->
<svg version="1.1" xmlns="http://www.w3.org/2000/svg" xmlns:xlink="http://www.w3.org/1999/xlink" x="0px" y="0px"
	 viewBox="0 0 807 257" style="enable-background:new 0 0 807 257;" xml:space="preserve">
<style type="text/css">
	.st0{fill-rule:evenodd;clip-rule:evenodd;fill:#E8E2E2;}
	.st1{fill-rule:evenodd;clip-rule:evenodd;fill:url(#SVGID_1_);}
	.st2{fill-rule:evenodd;clip-rule:evenodd;fill:#FEFEFE;}
	.st3{fill:#FFFFFF;}
	.st4{font-family:'BerlinSansFBDemi-Bold';}
	.st5{font-size:68px;}
</style>
<g id="_x33_5">
	<path class="st0" d="M203.46,230.49c57.49-10.44,95.5-63.99,84.7-119.59C277.38,55.31,222,18.78,164.52,29.21
		C107.03,39.65,69.25,93.2,80.04,148.79C90.83,204.39,145.98,240.91,203.46,230.49L203.46,230.49z"/>
	<linearGradient id="SVGID_1_" gradientUnits="userSpaceOnUse" x1="87.7442" y1="129.845" x2="280.4009" y2="129.845">
		<stop  offset="0" style="stop-color:#133F10"/>
		<stop  offset="1" style="stop-color:#039C01"/>
	</linearGradient>
	<path class="st1" d="M201.82,221.4c52.33-9.52,86.58-58.08,76.96-108.69c-9.85-50.59-60.3-83.95-112.39-74.42
		c-52.33,9.53-86.82,58.09-76.96,108.7C99.29,197.58,149.49,230.93,201.82,221.4L201.82,221.4z"/>
	<path class="st2" d="M253.44,152.42c-9.38,23.83-32.62,41.07-60.3,42.67c-38.24,2.27-70.86-25.87-72.97-62.86
		c-1.88-29.73,16.67-56.04,44.12-66.25c-1.18,0.91-2.12,1.81-3.29,2.72c-24.64,24.05-24.64,62.85,0,86.9
		c24.65,23.82,64.77,23.82,89.4,0C251.57,154.69,252.51,153.57,253.44,152.42L253.44,152.42z M237.96,81.18l-15.01,7.26
		l-11.73-11.58l2.58,16.12l-14.78,7.25l16.42,2.72l2.58,15.89l7.51-14.52l16.66,2.73l-11.97-11.58L237.96,81.18z"/>
	<text transform="matrix(1 0 0 1 388.0459 110.7367)"><tspan x="0" y="0" class="st3 st4 st5">PROJECT</tspan><tspan x="-74.39" y="81.6" class="st3 st4 st5">MONITORING</tspan></text>
</g>
<g id="Layer_1">
</g>
</svg>
